<svg xmlns="http://www.w3.org/2000/svg" viewBox="0 0 500 500" width="500" height="500">
  <style type="text/css">
    .st0{fill:#FEFEFE;}
    .st1{fill:#4C5B37;}
    .st2{fill:#28383A;}
    .st3{fill:#71914C;}
    .st4{fill:#304D55;}
    .st5{fill:#506982;}
    .st6{fill:#EAD7A1;}
    .st7{fill:#607B98;}
    .st8{fill:#B2AE7C;}
    .st9{fill:#2D4040;}
    .st10{fill:#588E40;}
    .st11{fill:#5F5644;}
    .st12{fill:#839D50;}
    .st13{fill:#77634A;}
    .st14{fill:#504436;}
    .st15{fill:#D8B182;}
    .st16{fill:#4A606E;}
    .st17{fill:#333A3E;}
    .st18{fill:#37484C;}
    .st19{fill:#D5C59C;}
    .st20{fill:#53606B;}
    .st21{fill:#EDC592;}
    .st22{fill:#233B2E;}
    .st23{fill:#81715B;}
    .st24{fill:#E3C08F;}
    .st25{fill:#EDCF9C;}
  </style>
  <circle class="st0" cx="250" cy="250" r="250"/>
  <path class="st1" d="M144.8,369.1c-12.8-0.3-26.3,2.7-36.9-7.8c-2.2-2.3-3.3-5-3.3-8.2c2.4-10.5,12.3-12.5,19.8-17.1
	c3.6-2.5,7.1-5.1,10.4-8.1c5.5-5,10.7-10.4,17.2-14.3c2.7-1.5,5.5-2.8,8.4-3.9c10.2-1.9,18.7-13.9,30.7-5.4
	c2.4,4.7,2.5,9.5,0.9,14.4C178,337,165.1,356.5,144.8,369.1z"/>
  <path class="st2" d="M432.9,327c-5.7-5.7-11.1-11.6-16.6-17.4c-11.6-7-18-23.4-34.4-21.6c-0.3-0.5-0.7-1-1.1-1.5
	c-6.8-7-13-14.6-21-20.3c-3.1-1.5-6.3-1.7-9.6-0.7c-6.3,4.3-7.9,10.8-8.2,17.9c0.1,5.2,1.2,10.2,3.4,14.9
	c13.4,13.2,10.2,20.1-8.1,21.6c-2.1,0.2-3.8,2.7-5.4,4.6c-4,9.2-1.2,16.6,5.9,23c2.9,1.8,6,2.9,9.4,3.2c2.8-0.7,5.4-0.9,7.8-0.7
	c8.3,6.3,14,17.3,26,17.1c0.4,0.4,0.8,0.8,1.1,1.2c1.4,0.6,2.9,1.3,4.3,2c14.8,0.5,24.8-9,35.3-17.3
	C443.2,351.8,450.9,344.9,432.9,327z"/>
  <path class="st3" d="M152,317.5c-4.8,4.9-9.7,9.8-14.5,14.7c-12.4-0.3-19-7.3-21.8-18.7c0.3-16.4-14.4-13.6-23.4-18.1
	c7-21.2,22.5-36.1,37.6-51.4c12.1,8.5,3.9,23.9,11.6,33.9C149.6,289.9,155.9,302.4,152,317.5z"/>
  <path class="st4" d="M179.9,209.1c-3.3,22.8-18.7,37.5-34.4,52.1c-10.8-6-13.3-14.8-9.1-26c2.2-6.5,4.6-12.9,6.6-19.4
	C151,189.2,163.7,189.6,179.9,209.1z"/>
  <path class="st5" d="M356.6,207.4C356.6,207.4,356.6,207.4,356.6,207.4c-3.6-10.5-16-35.8-19.9-44.4c0,0,0,0,0,0
	c-3.3-4.3-6.6-8.6-9.9-12.9c-14.8,5.1-32.5-9.2-45.6,6.9c-0.7,3.4-0.3,6.6,1.2,9.7c17.2,13.9,31.2,31.1,46.8,46.5
	c-2.5,2.9-4.4,6.2-5,10.4c-0.1,10.3,6.8,17,12.5,24.3c5.5,7.3,10.6,15.1,19.9,18.3l0.3-0.2c17.3,11.2,16.6-5,20.7-13.7
	C370.5,237.3,363.6,222.4,356.6,207.4z"/>
  <path class="st6" d="M275.8,110.7c-4-7.9-0.4-21.7-16-20.3c0,0,0,0,0,0c-22.1,17.1-38.6,37.6-47.1,65.3c-6.2,20.3-17.6,38.9-34,53.4
	c-14.3,16.4-27.5,33.6-39.4,51.7c-1.3,5.3-1.1,10.6,0.8,15.7c8.2,16.1,19,21.5,34.5,8.7c12.6-19.2,19.1-42.1,37.2-57.7
	c4.7-6.4,10.2-12,15.1-18.2c5.3-9.6,9.6-19.7,15.8-28.8c1.5-2.9,2.8-5.8,3.8-8.9c4.5-16.1,13.7-30.2,19.7-45.7
	c0.7-2.7,1.2-5.5,1.3-8.4C270.1,115.3,273,113,275.8,110.7z"/>
  <path class="st7" d="M326.7,150.1c-12.9,12.4-29.7,1.5-43.7,7.2c-4.8,0.2-9-1.4-12.8-4.1c-8-6.6-8.9-15.5-7.9-25
	c0.3-1.8,0.3-3.6-0.1-5.4c2.7-6.7,5.7-13.2,14.8-12.1C290.5,127.7,303.8,144.9,326.7,150.1z"/>
  <path class="st4" d="M356.8,266c11.2,1.8,13.5-9.6,20.7-13.7c12.9,19.1,25.8,38.2,38.8,57.3c-15.2-2.5-25.4-14.1-38.2-20.9
	C363.8,287.9,361.1,276.2,356.8,266z"/>
  <path class="st8" d="M319.8,374.6c-27.7,0.3-27.6-15.8-22-35.6c0.5-7-0.8-16.1-5-22.1c-21.6,6.8-43,12.2-65.6,12.6
	c6.6-8.4,13.3-16.8,19.9-25.2c-1.6-3-3.9-5.2-6.9-6.7c-7.8-2.8-15.8-4.6-24.1-5c-3.4,0.4-6.2,1.9-8.4,4.5c2.7,14.8-11.9,26.8-6.7,42
	c2.6,2.5,5.5,2.9,8.8,1.4c4.4-0.3,8.8-0.6,13.1-0.9c5.3,11.1,12.6,21.4,12.5,34.4c0.5,3.2,1.8,6.1,3.9,8.6
	c34.1-0.3,68,15.3,102.3,1.7C336.6,376,327.9,374.5,319.8,374.6z"/>
  <path class="st1" d="M108,317.1c-4.7,2.6-9.5,5.3-14.2,7.9c-14.1,0.1-11.6-7.7-7.8-16.2c2.1-4.5,4.2-8.9,6.4-13.4
	c18.5-12.7,34.4-20,30.6,14.5C119,314.7,114.6,318.1,108,317.1z"/>
  <path class="st1" d="M341.7,384.1c-7.2-0.6-14.4-1.7-21.6-1.9c-38.4-1.2-41.7-5.9-29.5-43.1c1.5-0.7,3.1-1.5,4.6-2.2
	c1.5,0.8,3.1,1.5,4.6,2.3c2.2,2.6,3.9,5.5,5.2,8.5c4.2,24.8,28.4,16,42,25c2,1.6,2.8,3.4,2.7,5.5c-0.2,2.1-0.5,3.2-1,3.2
	C346.4,382.3,344.1,383.2,341.7,384.1z"/>
  <path class="st9" d="M348.8,381.4c-0.1-2-0.4-4.1-0.7-6.1c-7.6-8.5-18.6-15.3-14.6-29.5c3.1-2.3,5.8-1.9,8.3,1
	c2.5,0,4.9-0.1,7.4-0.1c17.9-4.2,23.5,13,34.9,20.1c0.9,1,1.8,2.2,2.4,3.4C375.5,379.4,363,383.4,348.8,381.4z"/>
  <path class="st10" d="M130.5,339.8c2.3-2.5,4.7-5,7-7.6c-4.8-7.5-15.9-10.8-14.6-22.3c-5.6,0.5-11,1.4-14.4,6.5
	c-6.4-2.3-12,0.5-17.6,3.5c-0.6,0.4-1.1,0.7-1.7,1.1c-2.3-3.4-2.8-7.7-3.2-12c-11.3,8.3-23.9,15.5-27.5,30.7c0,0,0,0,0,0
	c0,0,0,0,0,0c-1.7,6.4-3.6,12.8,5.9,14.7c13.3,9.8,29,4.5,43.5,7c-0.1-2.2-0.7-4.4-1.7-6.4c0,0,0,0,0,0
	C114.3,349.8,122.4,344.8,130.5,339.8C130.5,339.8,130.5,339.8,130.5,339.8z"/>
  <path class="st5" d="M136.4,235.1c3,8.7,6.1,17.4,9.1,26c-0.2,4.3-0.4,8.5-0.6,12.8c-0.9,4.2-3.4,6.6-7.7,7.3
	c-12.5-10.4-4.1-24.9-7.3-37.2C132.1,241.1,134.2,238.1,136.4,235.1z"/>
  <path class="st11" d="M188.9,303.1c-10.5,3.8-17,16.2-30.3,13.7c-3.3-15.4,10.4-23.5,15-35.5c8.9-21.4,11.1-47.1,37.4-57.1
	c5.5,0.9,9.1,4.1,10.9,9.5c1.9,10.8-3.2,20.1-6.3,29.8C207.7,277.4,213.6,300.6,188.9,303.1z"/>
  <path class="st12" d="M173.6,281.3c3.8,15.5-6.8,25-15,35.5c-2.2,0.1-4.4,0.4-6.5,0.7c-11.7-9.4-5.2-26.2-14.9-36.3
	c2.6-2.4,5.1-4.8,7.7-7.3C153,281.7,160.3,293.1,173.6,281.3z"/>
  <path class="st13" d="M239.4,179.9c0.7,4.8,1.4,9.7,2.2,14.5c2.5,7.6,1.9,14-6.9,17c-3.6,0.3-6.9-0.8-9.7-3.1
	C225.2,196.5,225,184.5,239.4,179.9z"/>
  <path class="st14" d="M224.9,208.3c2.3,0.2,4.6,0.2,6.9,0c2.7,1.4,3.7,3.6,3.3,6.6c-1.4,4-3.9,7.3-6.9,10.2c-3.1,2.8-6.6,4.9-11,5
	c-2.1-1.9-4.2-3.9-6.3-5.8C212.1,215.8,214.9,208.9,224.9,208.3z"/>
  <path class="st15" d="M276.5,152.9c-4.7-8.2-9.5-16.5-14.2-24.7c-11.6,12.1-20,25.9-21.5,43c-0.4,2.9-0.9,5.8-1.3,8.7
	c-3.7,4.4-4.7,9.3-2.8,14.7c0.7,1.3,1.5,2.4,2.4,3.5c-2.4,3.4-4.7,6.7-7.1,10.1c0.2,2.4,0.1,4.8-0.1,7.2c-2.2,2.6-4.5,5.1-6.7,7.7
	c0,0,0,0,0,0c-2.6,2.3-5.2,4.6-7.8,7c-2.5,9.9-4.9,19.7-7.4,29.6c0.3,12,0.5,24,0.8,36.1c2.4,0,4.8-0.1,7.2-0.1
	c6.5-4.5,8.5-12.2,12.5-18.5c5.7-10.6,14.9-19.6,15.6-32.6c0.4-4.7,0.7-9.4,1.1-14c8.3-7.3,12.5-16.6,13.8-27.3
	c0.9-0.5,1.8-1.2,2.6-2c2-4.1,2.4-8,0.4-11.7C281.2,181.9,275,166.1,276.5,152.9z"/>
  <path class="st4" d="M348.4,295.7c15.1,5.3,14.6,19.1,19.2,34.5c-12.4-6-22.7-8.9-33.4-5.3c-2.3,2.5-5,3.3-8.2,2.3
	c-4.3-2.5-7.2-6-8.4-10.8c0.7-9,7.8-12.9,14-17.6C336.7,295.8,341.9,291.7,348.4,295.7z"/>
  <path class="st16" d="M348.4,295.7c-4.7,2.5-9.4,5-14,7.5c-7.5-5.2-9.6-13.8-13.3-21.3c-4.1-9.6-8.4-19.1-8.4-29.9
	c0.2-5.4,1.7-10.4,5.2-14.7c12-5.3,14.1,6.4,20,11.6c10.3,8.6,4.5,22.6,10.8,32.6C348.6,286.3,348.5,291,348.4,295.7z"/>
  <path class="st17" d="M348.7,281.6c-4.8-9.8-9.6-19.7-14.5-29.5c-2.3-7.6,0.9-9.5,7.9-7.8c4.8,7.3,9.6,14.6,14.4,21.9
	C350.5,269.6,349,275.3,348.7,281.6z"/>
  <path class="st18" d="M334.2,324.9c-2.4,0-4.7,0-7.1,0c0,0,0,0,0,0c-2.4-2.4-4.8-4.9-7.3-7.3c-2.1,11.7-21.6-2.3-21.8,12.1
	c-0.2,0.1-0.4,0.3-0.5,0.4c-0.6,0-1.1,1-1.6,3.1c-0.5,2,0.1,4,1.9,5.9l0.2,0.7c4.8,4.9,10.7,7.5,17.4,8.5c6.5,0.9,13,2.9,19-1.4
	c2.5,0,5,0,7.5-0.1C339.2,339.5,336.7,332.2,334.2,324.9z"/>
  <path class="st19" d="M291.2,318.2c-15.9,33.4-43,14.9-66.2,14.2c-4.5-16.2,9.6-22.5,17.1-32.4c5.8-5.6,11.8-10.9,19.5-13.9
	c3.1-1,6.3-1.4,9.5-1.5c12.1,1,27.3-5.6,32.1,13.2C303.6,307.2,300.4,314.5,291.2,318.2z"/>
  <path class="st20" d="M291.2,318.2c2.6-7.2,5.2-14.4,7.8-21.6c7.9-8.2,20.1-8.3,28.6-15.4c8.1,5.5,6.5,14.1,6.9,22
	c-4.9,4.8-9.7,9.6-14.6,14.4c3.4,20.5-19.4,2.5-21.7,14.7c-0.1,2.2-0.3,4.5-0.3,6.7c0,0-3.5,0.2-3.5,0.2s-3.5-0.1-3.5-0.1
	C290.8,332.2,291,325.2,291.2,318.2z"/>
  <path class="st12" d="M221.3,367.7c-1.9,0-3.8-0.1-5.7-0.2c-2.3-4-6.6-6.1-12.6-6.3c-6.2,2.1-12.5,4.2-18.7,6.3
	c1.6-3.7,2.2-7.6,2.2-11.7c-0.1-0.3-0.1-0.6-0.2-0.8c9.5,0.4,13.8-6.5,16.7-15.6c1.1-14.8,17-27.1,7.5-43.7
	c9-12.2,10.9-24.3-0.8-36.1c-10.8,12.7-5.8,32.9-21,43.5c-0.3,4.5-0.6,9.1-0.8,13.6c0,0,0,0,0,0c-17.6,14.8-33.9,30.7-43.2,52.3
	c5.4,7.9,13.8,6.5,21.6,7.1c1.2,0.6,2.4,1,3.5,1.2c22.7,7.2,46.3,3.5,69.4,5.1c0-2.1,0.1-4.2,0.3-6.3
	C235.1,370,228.4,368.6,221.3,367.7z"/>
  <path class="st21" d="M260.9,201.4c0.2-4.9,0.5-9.8,0.7-14.7c4.9-11.3,9.9-22.6,14.8-33.8c2.2,1.5,4.4,2.9,6.6,4.4
	c0.7,2.4,1.3,4.8,2,7.1c1.7,2.8,2.7,5.8,3.1,8.9c-1.2,16.8-9.7,33.2-2.1,50.4c0,3.4-0.9,6.4-3,9.1c-11.5,6.6-22.2,15.7-37,13
	c-3.6-4.2-4.4-9.1-3.7-14.4C245.2,219.3,252.1,209.8,260.9,201.4z"/>
  <path class="st7" d="M284.4,170.3c0.1-2,0.3-3.9,0.6-5.9c24.5,5.6,33.4,28.6,49.3,43.9c-0.1,5.8-1.1,11.2-6.7,14.4
	c-14.7,5.8-22.6-5.4-32.2-12.7C286.2,198.3,286.8,183.9,284.4,170.3z"/>
  <path class="st1" d="M225,339.4c-4.2-4-9.1-4.5-14.3-2.5c-1.3,1-2.4,2-3.5,3.1c-1.3-0.2-2.7-0.4-4-0.4c-7.1,4.9-14.3,9.9-21.4,14.8
	c-0.1,4.6-0.2,9.1-0.2,13.7c0,0,0.2,0.5,0.2,0.5c9.8,6.8,15.8,2.4,20.6-5.7c3.8,5.7,11.1,7.6,15.5,12.5c7.3,0.3,14.6,0.6,21.9,0.9
	C246.6,359.2,243.8,346.1,225,339.4z"/>
  <path class="st22" d="M334.3,346.9c-4.8-2.4-9.6-4.8-14.5-7.2c-7.3,0-14.6,0.1-21.9,0.1c0,2.4,0,4.8,0.1,7.1c0,0,0,0,0,0
	c0,0,0,0,0,0c-0.6,39.9,28.9,26.8,50.1,28.4C350.2,362.6,338,356.8,334.3,346.9z"/>
  <path class="st15" d="M327.5,281.2c2.7,27.8-16.5,14.9-28.6,15.4c-7.5-15.9-22.5,5.3-30.9-6.3c4.1-20.2,21.5-30.1,34.3-43.5
	c6.7-7,12.6-2,16.7,4.8C321.9,261.5,324.7,271.3,327.5,281.2z"/>
  <path class="st23" d="M319.1,251.6c-25.8,1.3-31.1,29.6-51,38.7c0,0,0.8-3.2,0.8-3.2c-9.7-13.2,2.3-20.4,8-29.5
	c4.1-4.8,8-10,14.1-12.5c8.9-4.5,15.2-18.4,28.2-7.5C319.1,242.3,319.1,246.9,319.1,251.6z"/>
  <path class="st11" d="M283.6,259.8c-4,9.6-15.6,15.1-14.7,27.3c-7.2,5.7-14.5,11.4-21.7,17.1c-2.6-0.4-5.2-0.7-7.9-1.1
	c-5.9-14.8,4.9-25.7,8.7-38.3c5.6-9.8,13.8-15.4,25.3-15.6C279,250.7,282.4,254.1,283.6,259.8z"/>
  <path class="st24" d="M253.5,266.6c1,14.4-10.9,23.8-14.2,36.5c-7.9-0.3-16.5,1.2-21.5-7.5c0.5-7.9-1.1-16.4,7.1-21.9
	C235.8,276.7,242.1,261.5,253.5,266.6z"/>
  <path class="st25" d="M253.5,266.6c-11.1-4-11.7,34.7-28.7,7.1c5.8-10.6,8.8-23.2,21-29.2c12.1-5,21.1-17.7,36.5-14.3
	c0.9,2.3,1.1,4.6,0.5,7.1c-0.2,5.9-1.7,11-7.9,13.5C267.9,256,260.7,261.3,253.5,266.6z"/>
  <path class="st14" d="M327.6,222.7c-9.8-3.3-15.3-14.8-27.1-14.5c-9.9,0.2-14.6,5.7-15.3,15.2c-0.9,2.3-1.9,4.5-2.8,6.8
	c-1.7,2.5-2.2,5.1-1.5,7.9c-4.7,2.6-5,7.8-5.9,12.6c2.9,3,5.7,6,8.5,9.1c2.2-4.4,4.4-8.7,6.6-13.1c0.9,0.3,1.8,0.6,2.7,0.8
	c9.8-0.5,18-5,26.2-9.8c5,4.8,10.1,9.6,15.1,14.5c2.6-2.6,5.2-5.2,7.9-7.8C337.2,237.1,332.4,229.9,327.6,222.7z"/>
  <path class="st15" d="M300.5,208.2c-5.1,5.1-10.2,10.2-15.3,15.2c-26.5-17.3-3.8-35.4-0.8-53.1C294.6,180.8,299.1,193.8,300.5,208.2
	z"/>
</svg>
